<?xml version="1.0" standalone="no"?>
<!DOCTYPE svg PUBLIC "-//W3C//DTD SVG 20010904//EN"
 "http://www.w3.org/TR/2001/REC-SVG-20010904/DTD/svg10.dtd">
<svg version="1.0" xmlns="http://www.w3.org/2000/svg"
 width="46.000000pt" height="40.000000pt" viewBox="0 0 46.000000 40.000000"
 preserveAspectRatio="xMidYMid meet">

<g transform="translate(0.000000,40.000000) scale(0.100000,-0.100000)"
fill="#000000" stroke="none">
<path d="M325 389 l40 -7 -47 1 c-27 1 -48 -2 -48 -6 0 -5 -4 -6 -9 -3 -12 8
-61 -51 -61 -72 1 -12 6 -8 15 10 17 30 65 48 128 48 20 0 37 4 37 8 0 18 -26
32 -59 31 l-36 -2 40 -8z"/>
<path d="M292 324 c-15 -6 -33 -18 -41 -27 -7 -10 -19 -17 -26 -17 -16 0 -142
-75 -172 -103 -13 -11 -23 -29 -23 -39 0 -10 -8 -30 -17 -44 -13 -21 -14 -27
-3 -34 7 -4 22 -5 34 -1 22 9 34 31 17 31 -14 0 -14 27 -1 35 6 3 19 3 30 0
15 -5 20 -15 20 -40 0 -52 29 -80 84 -80 36 0 51 6 72 26 l26 26 -41 -2 c-22
-1 -38 2 -35 6 3 5 13 9 22 9 9 1 0 10 -22 21 -21 12 -49 19 -62 16 -13 -2
-21 -1 -19 3 8 13 114 19 144 7 36 -13 100 5 143 41 35 29 38 82 8 112 -22 22
-60 29 -42 8 5 -7 12 -26 14 -42 3 -25 -1 -29 -25 -32 -24 -2 -27 0 -21 18 4
15 2 19 -7 15 -8 -2 -13 -10 -11 -16 1 -6 -2 -11 -7 -11 -5 0 -7 -10 -4 -22 4
-19 3 -20 -6 -8 -14 20 -15 -4 -1 -31 10 -17 7 -19 -23 -19 -34 0 -64 20 -50
33 3 4 -3 7 -14 7 -11 0 -26 6 -32 14 -10 12 -6 12 26 1 41 -14 55 -9 74 27 8
15 4 25 -20 48 -29 30 -29 30 -8 41 13 7 50 10 99 6 74 -5 103 2 76 19 -20 13
-126 11 -156 -2z m-52 -77 c0 -31 -25 -31 -28 0 -1 15 4 23 13 23 9 0 15 -9
15 -23z m177 -9 c-3 -8 -6 -5 -6 6 -1 11 2 17 5 13 3 -3 4 -12 1 -19z"/>
</g>
</svg>
